<?xml version="1.0" encoding="UTF-8"?>
<svg id="_图层_1" data-name="图层 1" xmlns="http://www.w3.org/2000/svg" xmlns:xlink="http://www.w3.org/1999/xlink" viewBox="0 0 1024.2 1020.07">
  <defs>
    <style>
      .cls-1 {
        fill: #fff;
      }

      .cls-2 {
        fill: #4baadf;
      }

      .cls-3 {
        fill: #2340a9;
      }

      .cls-4 {
        clip-path: url(#clippath);
      }

      .cls-5 {
        fill: none;
      }

      .cls-6 {
        fill: #4f8df5;
      }

      .cls-7 {
        fill: #b5b5b5;
      }
    </style>
    <clipPath id="clippath">
      <path class="cls-5" d="m627.56,692.27h-74.82v-140.13c0-16.31-3.37-28.82-10.09-37.53-6.73-8.71-16.35-13.06-28.86-13.06-13.3,0-24.07,4.91-32.3,14.73-8.24,9.82-12.35,22.25-12.35,37.29v138.71h-75.05v-360.07h75.05v147.26h.95c7.76-10.61,18.68-19.32,32.78-26.13,14.09-6.81,28.1-10.21,42.04-10.21,25.97,0,46.23,8.16,60.8,24.46,14.57,16.31,21.85,40.77,21.85,73.39v151.29Z"/>
    </clipPath>
  </defs>
  <path class="cls-6" d="m90.38,1.39s281.82,1.16,422.62-1.39c-1.39,83.87-1.16,167.75.23,251.62.46,56.92-.7,113.84-1.86,170.77-44.38-44.84-89.91-88.75-136.15-131.73-71.79,52.51-117.56,131.97-124.53,220.95-83.64.46-167.28.46-250.69,0C5.11,359.66,75.74,219.56,185.17,115.94"/>
  <path class="cls-3" d="m601.75,512.76c44.84-45.07,88.75-91.31,131.73-138.01-52.97-71.09-132.66-113.84-220.25-123.14-1.39-83.87-1.63-167.75-.23-251.62,153.57,5.11,299.25,76.44,398.46,193.54,38.8-32.29,76.44-65.98,111.52-102,1.39,141.03,1.86,282.06,0,423.08"/>
  <path class="cls-7" d="m911.45,833.62c-194.93,248.37-604.3,249.06-798.3-.7-39.03,32.29-76.44,66.22-111.75,102.46-1.63-141.26.7-282.52-1.39-423.78,83.41.46,167.05.46,250.69,0,57.85,0,115.94.46,173.79,1.16-44.61,45.31-88.98,91.08-132.9,137.08,100.83,157.76,340.6,152.41,444.69.93"/>
  <circle class="cls-2" cx="512.7" cy="511.27" r="184.5"/>
  <g class="cls-4">
    <circle class="cls-1" cx="512.7" cy="511.27" r="184.5"/>
  </g>
</svg>